<svg 
 xmlns="http://www.w3.org/2000/svg"
 xmlns:xlink="http://www.w3.org/1999/xlink"
 width="101px" height="73px">
<defs>
<filter id="Filter_0">
    <feFlood flood-color="rgb(164, 197, 140)" flood-opacity="1" result="floodOut" />
    <feComposite operator="atop" in="floodOut" in2="SourceGraphic" result="compOut" />
    <feBlend mode="normal" in="compOut" in2="SourceGraphic" />
</filter>

</defs>
<g filter="url(#Filter_0)">
<path fill-rule="evenodd"  fill="rgb(115, 115, 115)"
 d="M25.170,0.710 C30.162,0.631 35.345,0.757 39.437,1.783 C41.471,2.294 43.259,2.322 45.105,2.955 C46.454,3.418 47.895,4.35 49.112,4.712 C49.695,5.37 50.140,5.722 50.871,5.884 C51.212,5.401 51.738,5.234 52.239,4.907 C54.3,3.757 56.239,3.47 58.493,2.370 C59.351,2.111 60.42,2.211 60.936,1.979 C62.738,1.512 65.54,1.448 66.995,1.3 C67.516,1.3 68.37,1.3 68.559,1.3 C69.785,0.737 71.438,1.113 72.858,0.808 C73.753,0.616 75.482,0.609 76.376,0.808 C77.792,1.123 79.452,0.729 80.676,1.3 C81.197,1.3 81.719,1.3 82.240,1.3 C83.246,1.234 84.446,1.129 85.562,1.393 C88.134,2.3 90.840,2.317 93.87,3.150 C95.767,4.144 98.470,5.163 99.927,7.347 C100.778,8.623 100.612,10.869 100.611,13.9 C100.611,16.978 100.611,20.948 100.611,24.917 C100.611,34.742 100.611,44.570 100.611,54.395 C100.611,60.88 100.748,66.45 100.514,71.574 C99.957,72.18 99.682,72.637 98.852,72.843 C98.232,72.998 97.518,72.573 97.93,72.453 C95.922,72.121 94.614,72.127 93.478,71.867 C92.209,71.578 90.843,71.734 89.667,71.476 C89.178,71.476 88.689,71.476 88.201,71.476 C87.348,71.292 86.200,71.503 85.171,71.282 C83.299,70.878 80.808,70.990 78.722,70.989 C76.532,70.987 73.908,70.553 71.881,70.989 C71.27,71.173 69.877,70.929 69.145,71.86 C68.298,71.86 67.451,71.86 66.604,71.86 C65.471,71.330 63.884,71.238 62.793,71.476 C61.653,71.541 60.513,71.607 59.373,71.672 C57.386,72.119 55.186,71.986 53.118,72.453 C52.370,72.622 51.113,73.65 50.187,72.843 C47.682,72.242 44.653,72.252 42.76,71.672 C40.693,71.360 39.165,71.562 37.874,71.282 C36.473,71.216 35.72,71.151 33.672,71.86 C33.151,71.86 32.629,71.86 32.108,71.86 C30.814,70.809 28.341,70.767 27.27,70.989 C26.325,71.108 25.120,70.832 24.388,70.989 C22.141,71.21 19.893,71.54 17.645,71.86 C16.648,71.301 15.383,71.31 14.225,71.282 C11.581,71.852 8.499,71.656 6.16,72.258 C4.251,72.686 2.72,73.274 1.130,71.867 C0.515,70.948 0.837,68.510 0.837,67.84 C0.837,63.18 0.837,58.950 0.837,54.884 C0.837,39.528 0.837,24.167 0.837,8.812 C1.167,8.520 1.185,7.929 1.423,7.543 C1.758,7.1 2.384,6.264 2.889,5.884 C5.770,3.719 9.343,2.829 13.443,1.783 C16.126,1.100 19.139,1.416 21.945,0.808 C22.872,0.607 24.454,1.162 25.170,0.710 ZM23.509,4.907 C23.118,5.137 22.382,4.887 21.847,5.5 C20.663,5.265 19.394,5.8 18.134,5.297 C13.304,6.411 8.44,6.514 5.39,9.398 C5.39,23.647 5.39,37.901 5.39,52.150 C5.39,56.22 5.39,59.894 5.39,63.766 C5.39,64.594 4.856,67.752 5.39,68.61 C5.144,68.134 5.132,68.119 5.332,68.158 C6.37,67.697 7.222,67.977 8.166,67.767 C9.710,67.426 11.671,67.525 13.248,67.182 C13.867,67.182 14.486,67.182 15.105,67.182 C16.196,66.948 17.641,67.259 18.916,66.987 C20.903,66.563 23.489,66.792 25.756,66.791 C34.52,66.791 41.371,67.467 48.526,68.353 C48.942,67.87 48.623,64.323 48.623,62.789 C48.623,58.691 48.623,54.590 48.623,50.491 C48.623,36.860 48.623,23.224 48.623,9.593 C48.545,9.477 48.548,9.428 48.526,9.202 C42.471,5.345 33.449,4.982 23.509,4.907 ZM52.825,68.353 C54.623,68.240 56.773,67.963 58.493,67.572 C59.845,67.266 61.345,67.458 62.598,67.182 C63.151,67.182 63.705,67.182 64.259,67.182 C65.731,66.864 67.720,67.120 69.243,66.791 C71.816,66.791 74.390,66.791 76.963,66.791 C83.857,66.791 90.370,67.399 96.409,68.158 C96.409,48.541 96.409,28.917 96.409,9.299 C96.46,9.67 95.803,8.628 95.432,8.421 C94.415,7.855 93.383,7.684 92.207,7.250 C87.531,5.520 81.528,4.909 75.204,4.907 C70.756,4.907 66.324,4.939 62.695,5.884 C62.30,6.57 61.597,5.893 60.936,6.79 C57.956,6.915 54.771,7.532 52.825,9.398 C52.825,29.47 52.825,48.703 52.825,68.353 ZM14.909,22.477 C20.642,22.477 26.376,22.477 32.108,22.477 C35.309,22.477 38.183,21.722 38.167,25.112 C37.690,25.644 37.558,26.318 36.799,26.577 C35.587,26.989 32.899,26.674 31.424,26.674 C27.450,26.674 23.476,26.674 19.502,26.674 C16.221,26.674 13.317,27.435 13.346,23.941 C13.674,23.595 13.821,23.35 14.225,22.770 C14.459,22.616 14.718,22.650 14.909,22.477 ZM64.943,22.477 C70.675,22.477 76.410,22.477 82.142,22.477 C84.77,22.477 87.287,22.7 87.810,23.453 C88.941,24.601 87.648,26.578 86.246,26.577 C85.646,26.954 82.163,26.674 81.165,26.674 C76.800,26.674 72.434,26.674 68.70,26.674 C66.51,26.674 63.771,26.927 63.575,25.112 C62.644,23.953 64.439,22.913 64.943,22.477 ZM14.909,34.971 C20.642,34.971 26.376,34.971 32.108,34.971 C35.314,34.971 38.183,34.208 38.167,37.606 C37.687,38.142 37.558,38.803 36.799,39.71 C35.618,39.487 32.877,39.168 31.424,39.168 C27.450,39.168 23.476,39.168 19.502,39.168 C16.225,39.168 13.317,39.921 13.346,36.435 C13.646,36.119 13.769,35.618 14.127,35.362 C14.372,35.187 14.695,35.166 14.909,34.971 ZM65.41,34.971 C70.773,34.971 76.507,34.971 82.240,34.971 C85.214,34.971 88.184,34.376 88.201,37.411 C87.721,38.41 87.624,38.757 86.833,39.71 C85.803,39.478 83.65,39.168 81.751,39.168 C77.777,39.168 73.803,39.168 69.829,39.168 C67.482,39.168 63.805,39.745 63.575,37.606 C63.236,37.188 63.490,36.669 63.575,36.142 C63.805,35.964 63.852,35.637 64.63,35.459 C64.336,35.230 64.761,35.193 65.41,34.971 ZM14.909,47.465 C20.153,47.465 25.399,47.465 30.642,47.465 C32.629,47.465 34.617,47.465 36.603,47.465 C37.429,47.722 37.645,48.383 38.167,48.929 C38.179,50.351 37.805,51.211 36.799,51.565 C35.558,52.1 32.655,51.662 31.131,51.662 C27.353,51.662 23.573,51.662 19.795,51.662 C18.400,51.662 15.852,51.958 14.714,51.565 C14.18,51.323 13.800,50.676 13.346,50.198 C13.303,48.88 13.877,48.376 14.909,47.465 ZM65.41,47.465 C70.773,47.465 76.507,47.465 82.240,47.465 C85.219,47.465 88.184,46.864 88.201,49.905 C87.729,50.524 87.633,51.280 86.833,51.565 C85.677,51.975 82.981,51.662 81.556,51.662 C77.647,51.662 73.737,51.662 69.829,51.662 C67.482,51.662 63.805,52.239 63.575,50.101 C63.236,49.682 63.490,49.163 63.575,48.636 C63.789,48.472 63.783,48.234 63.966,48.51 C64.242,47.772 64.733,47.714 65.41,47.465 Z"/>
</g>
</svg>