<svg 
 xmlns="http://www.w3.org/2000/svg"
 xmlns:xlink="http://www.w3.org/1999/xlink"
 width="88px" height="88px">
<defs>
<filter id="Filter_0">
    <feFlood flood-color="rgb(164, 197, 140)" flood-opacity="1" result="floodOut" />
    <feComposite operator="atop" in="floodOut" in2="SourceGraphic" result="compOut" />
    <feBlend mode="normal" in="compOut" in2="SourceGraphic" />
</filter>

</defs>
<g filter="url(#Filter_0)">
<path fill-rule="evenodd"  fill="rgb(115, 115, 115)"
 d="M57.574,0.249 C57.899,0.249 58.225,0.249 58.550,0.249 C58.707,0.436 58.720,0.302 58.941,0.445 C59.237,0.636 59.379,1.73 59.624,1.323 C59.727,7.118 58.117,10.886 55.718,14.116 C55.217,14.791 54.722,15.570 54.58,16.70 C53.170,16.737 52.285,17.442 51.324,18.23 C50.905,18.275 50.326,18.319 50.54,18.706 C49.806,19.59 49.766,19.493 49.566,19.878 C48.842,21.270 48.250,22.690 47.515,24.175 C45.970,27.297 44.292,30.759 43.218,34.233 C43.283,34.233 43.348,34.233 43.413,34.233 C44.123,33.180 45.330,32.262 46.343,31.499 C47.54,30.963 47.674,30.177 48.394,29.644 C50.236,28.280 52.86,27.78 54.58,25.835 C55.357,25.16 56.523,23.709 58.550,23.687 C59.36,24.278 59.548,24.372 59.624,25.444 C59.30,26.258 58.915,27.343 58.453,28.276 C57.186,30.832 56.183,33.692 55.35,36.382 C55.132,36.382 55.230,36.382 55.328,36.382 C55.708,35.610 57.428,34.580 58.160,34.38 C60.327,32.433 62.244,30.371 64.410,28.765 C65.132,28.229 67.248,26.912 67.535,26.128 C67.699,25.693 67.229,24.271 67.437,23.394 C67.821,21.771 68.226,20.329 68.999,19.97 C70.363,16.924 72.642,15.338 75.347,14.507 C79.173,13.332 83.774,15.911 85.210,17.827 C86.16,18.903 86.889,20.164 87.359,21.539 C89.560,27.981 84.219,33.154 79.742,34.429 C77.980,34.930 76.164,34.292 74.566,34.233 C73.884,35.97 72.81,35.834 71.636,36.773 C73.260,36.773 75.94,37.359 76.519,37.749 C80.345,38.797 85.538,39.607 87.359,42.534 C87.947,43.480 87.749,45.416 87.749,46.929 C87.749,51.937 88.192,54.45 84.624,55.718 C84.713,60.24 83.383,63.879 82.85,66.948 C78.162,76.225 71.55,85.6 60.699,87.749 C54.905,87.749 49.109,87.749 43.316,87.749 C37.978,87.749 32.638,87.749 27.300,87.749 C26.20,87.368 24.582,86.967 23.394,86.382 C14.981,82.241 8.748,74.886 5.327,65.776 C4.505,63.587 4.142,61.187 3.570,58.745 C3.505,57.736 3.440,56.727 3.374,55.718 C3.114,55.588 2.853,55.458 2.593,55.327 C1.898,54.840 1.89,54.103 0.640,53.374 C0.151,52.86 0.249,47.901 0.249,45.854 C0.249,45.9 0.249,44.162 0.249,43.316 C0.672,41.934 1.858,41.193 2.984,40.484 C6.442,38.305 11.45,37.694 15.679,36.577 C17.344,36.176 19.38,36.278 20.660,35.894 C21.278,35.747 22.227,35.981 22.515,35.503 C21.599,34.487 21.283,32.784 20.757,31.401 C19.586,28.324 18.974,24.901 18.23,21.440 C17.958,20.822 17.893,20.203 17.828,19.585 C17.338,17.555 16.910,15.839 19.683,15.874 C20.212,16.320 21.91,16.210 21.831,16.460 C23.621,17.65 25.485,17.758 27.105,18.608 C33.265,21.844 37.467,26.729 39.19,34.624 C39.247,34.624 39.475,34.624 39.703,34.624 C42.365,29.883 40.123,22.878 38.433,18.999 C31.775,18.802 27.145,15.358 24.370,11.187 C23.490,9.863 22.124,8.190 22.124,6.109 C22.399,5.800 22.450,5.467 22.808,5.230 C23.280,4.849 24.285,4.918 25.152,4.937 C26.923,4.974 28.786,5.311 30.230,5.718 C35.10,7.64 38.636,8.914 40.288,13.335 C40.598,14.163 40.674,15.200 40.874,16.70 C40.874,16.428 40.874,16.786 40.874,17.144 C41.400,18.462 42.297,19.904 42.827,21.343 C43.76,22.18 43.354,24.477 43.804,24.761 C43.883,24.244 44.198,23.872 44.390,23.491 C44.803,22.668 44.942,21.863 45.367,21.50 C45.894,20.39 46.708,18.861 47.124,17.827 C47.124,17.79 47.124,16.330 47.124,15.581 C47.590,13.546 47.621,11.507 48.296,9.722 C49.481,6.590 51.510,3.797 54.58,2.7 C54.656,1.586 55.451,1.123 56.109,0.835 C56.623,0.611 57.192,0.592 57.574,0.249 ZM56.109,4.351 C55.546,5.186 54.376,5.589 53.765,6.402 C52.158,8.539 50.485,11.164 50.445,14.800 C50.510,14.800 50.575,14.800 50.640,14.800 C51.255,13.996 52.368,13.569 52.984,12.749 C54.568,10.643 56.256,7.897 56.304,4.351 C56.239,4.351 56.174,4.351 56.109,4.351 ZM37.554,15.776 C37.400,10.897 31.130,8.697 26.324,8.159 C26.324,8.192 26.324,8.224 26.324,8.257 C26.291,8.257 26.258,8.257 26.226,8.257 C26.226,8.322 26.226,8.387 26.226,8.452 C26.537,8.702 26.577,9.98 26.812,9.429 C27.282,10.91 27.873,10.717 28.374,11.382 C29.831,13.311 34.273,15.622 37.554,15.776 ZM74.468,18.23 C74.632,19.32 75.369,19.909 75.835,20.659 C77.306,23.27 78.710,24.697 81.11,26.226 C81.504,26.553 83.491,27.995 83.941,27.593 C84.853,26.471 84.745,23.634 84.234,22.222 C83.260,19.533 81.979,18.390 79.58,17.632 C78.529,17.494 77.324,17.238 76.519,17.437 C75.854,17.601 75.150,17.912 74.468,18.23 ZM20.953,19.585 C20.984,21.478 21.816,24.298 22.320,25.933 C23.919,31.130 25.316,36.15 28.960,39.117 C29.570,39.635 30.111,40.474 30.816,40.874 C31.243,41.117 31.745,41.39 32.183,41.265 C32.716,41.539 33.96,42.60 33.745,42.241 C33.745,42.176 33.745,42.111 33.745,42.46 C33.74,41.196 32.810,39.990 32.281,39.19 C31.77,36.814 29.634,34.602 28.179,32.573 C27.309,31.360 25.253,29.751 25.249,27.886 C25.856,27.233 25.954,26.789 27.300,26.812 C29.890,29.413 32.52,32.608 34.38,35.796 C34.472,36.492 35.688,39.422 36.187,39.702 C36.187,38.726 36.187,37.749 36.187,36.773 C35.920,36.335 36.138,35.700 35.992,35.113 C35.596,33.528 35.300,31.797 34.624,30.425 C32.550,26.213 29.487,23.505 25.347,21.343 C24.133,20.709 22.593,19.675 20.953,19.585 ZM81.597,30.132 C80.592,29.948 79.776,29.172 79.58,28.667 C77.142,27.323 75.431,25.773 74.78,23.882 C73.613,23.233 72.360,20.430 71.734,20.268 C71.445,21.296 70.855,22.215 70.562,23.491 C70.379,24.287 70.615,25.401 70.757,25.933 C71.532,28.833 72.649,30.147 75.347,31.109 C76.58,31.362 77.430,31.767 78.570,31.499 C79.713,31.231 80.630,30.703 81.597,30.425 C81.597,30.328 81.597,30.229 81.597,30.132 ZM54.351,29.253 C53.384,30.236 51.966,30.884 50.835,31.695 C48.46,33.694 45.199,36.581 43.218,39.409 C42.88,41.23 40.918,42.755 40.874,45.464 C40.907,45.464 40.940,45.464 40.972,45.464 C40.972,45.497 40.972,45.529 40.972,45.562 C48.594,44.106 49.747,40.719 52.398,34.429 C53.90,32.786 54.81,31.7 54.546,29.253 C54.481,29.253 54.416,29.253 54.351,29.253 ZM42.437,50.249 C44.159,50.270 46.366,50.486 47.906,50.151 C48.590,50.3 49.517,50.343 50.54,50.54 C50.329,49.906 50.580,49.462 50.835,49.273 C52.18,48.395 53.94,47.398 54.253,46.538 C57.654,44.15 60.807,41.247 64.214,38.726 C64.616,38.429 65.706,37.640 65.972,37.261 C66.188,36.954 66.243,36.572 66.558,36.382 C66.901,36.175 67.316,36.211 67.632,35.992 C68.501,35.388 69.224,34.476 70.74,33.843 C70.563,33.478 71.410,33.77 71.636,32.476 C70.652,32.135 69.252,30.292 68.804,29.351 C67.313,30.222 66.164,31.659 64.800,32.671 C60.691,35.720 56.981,39.184 52.886,42.241 C51.223,43.483 49.871,45.234 48.101,46.343 C46.310,47.465 44.398,47.773 42.242,48.589 C42.407,49.51 42.441,49.586 42.437,50.249 ZM23.199,38.726 C22.733,39.1 22.69,38.774 21.441,38.921 C20.99,39.235 18.587,39.154 17.144,39.507 C13.802,40.325 10.314,40.768 7.378,41.850 C6.198,42.286 3.857,42.701 3.472,43.804 C3.65,44.553 6.284,46.276 7.476,45.952 C9.830,45.312 12.608,44.991 15.191,44.390 C15.516,44.390 15.842,44.390 16.167,44.390 C17.906,43.988 20.86,44.12 21.831,43.609 C22.189,43.609 22.548,43.609 22.906,43.609 C24.63,43.343 25.590,43.289 26.714,43.22 C27.386,42.863 27.905,43.144 28.277,42.730 C26.998,41.970 25.234,40.13 24.468,38.726 C24.45,38.726 23.622,38.726 23.199,38.726 ZM68.316,39.409 C67.746,39.979 67.17,40.390 66.363,40.874 C65.753,41.326 65.215,41.984 64.605,42.437 C64.196,42.740 63.659,42.935 63.433,43.413 C63.791,43.413 64.149,43.413 64.507,43.413 C65.331,43.917 68.290,43.711 69.488,43.999 C71.690,44.530 74.107,44.544 76.324,45.171 C77.512,45.507 78.965,45.985 80.132,46.245 C81.220,46.488 84.527,44.728 84.624,43.804 C84.397,43.544 84.169,43.283 83.941,43.22 C82.503,42.142 80.845,42.37 79.58,41.460 C75.847,40.424 71.980,39.871 68.316,39.409 ZM59.917,46.148 C59.361,46.673 58.683,47.55 58.62,47.515 C57.620,47.842 57.234,48.359 56.792,48.687 C56.325,49.33 55.585,49.318 55.328,49.859 C56.11,49.859 56.695,49.859 57.378,49.859 C58.193,49.371 61.341,49.737 62.554,49.468 C63.721,49.209 65.82,49.371 66.363,49.78 C68.593,48.566 71.78,48.450 73.296,48.3 C73.296,47.971 73.296,47.938 73.296,47.906 C73.199,47.873 73.101,47.840 73.3,47.808 C72.227,47.337 70.717,47.565 69.683,47.319 C67.451,46.789 64.698,46.858 62.359,46.343 C61.488,46.151 60.630,46.390 59.917,46.148 ZM22.124,46.734 C21.665,47.19 21.7,46.783 20.367,46.929 C18.534,47.346 16.19,47.687 14.19,47.710 C14.19,47.775 14.19,47.840 14.19,47.906 C16.200,48.231 18.381,48.556 20.562,48.882 C21.107,48.74 22.540,47.482 22.906,46.734 C22.645,46.734 22.385,46.734 22.124,46.734 ZM30.816,47.319 C30.487,47.528 30.115,47.392 29.644,47.515 C28.559,47.798 27.339,48.51 26.324,48.491 C24.12,49.494 22.145,51.155 21.148,53.472 C20.843,54.181 20.951,54.793 20.757,55.620 C20.583,56.364 20.318,58.13 20.562,59.39 C20.757,59.861 20.924,61.19 21.148,61.772 C21.576,63.216 21.810,64.467 22.320,65.679 C22.524,66.164 22.451,66.714 22.906,66.948 C23.364,65.494 24.626,64.216 25.445,63.42 C27.841,59.605 30.259,56.192 33.648,53.765 C34.474,53.174 35.603,52.567 36.578,52.202 C37.273,51.942 37.871,51.901 38.433,51.519 C38.726,51.161 39.19,50.803 39.312,50.445 C39.366,49.306 39.39,47.672 38.42,47.613 C37.224,48.257 35.250,48.740 34.234,49.273 C31.908,50.492 29.464,52.268 27.984,54.351 C26.982,55.760 27.142,58.43 24.761,58.62 C24.161,57.379 23.668,57.414 23.687,56.11 C24.178,55.453 24.271,54.507 24.663,53.863 C25.153,53.59 25.756,52.274 26.324,51.519 C26.898,50.754 28.557,49.255 29.351,48.687 C29.930,48.271 30.981,47.965 31.304,47.319 C31.141,47.319 30.978,47.319 30.816,47.319 ZM3.374,47.906 C3.364,49.287 3.234,50.988 3.472,52.202 C5.516,53.356 7.666,54.86 10.113,54.937 C11.298,55.348 12.607,55.396 13.726,55.718 C14.182,55.849 17.319,56.223 17.339,56.206 C17.694,55.781 17.455,55.207 17.632,54.546 C17.877,53.635 18.294,52.707 18.511,51.811 C18.479,51.811 18.446,51.811 18.413,51.811 C18.413,51.779 18.413,51.746 18.413,51.714 C16.996,51.688 15.527,51.349 14.312,51.30 C13.759,50.965 13.205,50.900 12.652,50.835 C10.617,50.284 8.430,49.990 6.499,49.273 C5.472,48.891 4.433,48.120 3.374,47.906 ZM84.429,47.906 C84.59,48.243 83.657,48.244 83.160,48.491 C81.180,49.475 78.665,49.961 76.324,50.640 C75.728,50.813 75.379,50.673 74.761,50.835 C72.770,51.358 70.302,51.504 68.218,52.7 C67.274,52.72 66.330,52.137 65.386,52.202 C63.936,52.540 61.980,52.451 60.503,52.788 C59.885,52.788 59.266,52.788 58.648,52.788 C57.791,52.979 56.513,52.880 55.620,53.81 C55.2,53.81 54.383,53.81 53.765,53.81 C52.972,53.257 51.749,52.977 50.835,53.179 C48.194,53.763 43.811,53.371 40.777,53.374 C39.878,54.494 38.545,54.646 37.163,55.327 C36.427,55.691 35.750,56.235 35.113,56.695 C34.654,57.25 33.954,57.300 33.745,57.867 C34.657,57.867 35.568,57.867 36.480,57.867 C37.134,58.275 38.556,57.784 39.410,57.964 C40.286,58.149 41.592,58.62 42.632,58.62 C44.553,58.62 46.474,58.62 48.394,58.62 C49.248,58.51 50.613,58.45 51.421,57.867 C53.4,57.517 54.800,57.982 56.206,57.671 C57.203,57.451 58.310,57.659 59.136,57.476 C59.689,57.476 60.243,57.476 60.796,57.476 C62.265,57.146 64.151,57.221 65.581,56.890 C66.988,56.565 68.311,56.833 69.683,56.499 C72.178,55.893 74.983,55.637 77.300,54.937 C77.796,54.787 78.74,54.893 78.570,54.742 C80.113,54.268 81.730,53.650 83.62,52.983 C83.650,52.689 84.293,52.641 84.527,52.7 C84.841,51.512 84.635,48.735 84.624,47.906 C84.559,47.906 84.494,47.906 84.429,47.906 ZM6.695,57.85 C6.350,58.159 6.992,60.236 7.281,61.187 C7.698,62.558 7.775,63.729 8.257,64.995 C8.995,66.933 10.49,68.768 10.992,70.464 C14.585,76.931 19.989,82.294 27.691,84.624 C33.777,84.624 39.866,84.624 45.953,84.624 C50.737,84.624 55.523,84.624 60.308,84.624 C68.797,82.36 74.367,75.904 78.81,68.511 C79.693,65.304 81.71,61.677 81.402,57.183 C81.369,57.183 81.337,57.183 81.304,57.183 C81.304,57.150 81.304,57.118 81.304,57.85 C78.643,58.201 75.333,58.492 72.320,59.234 C71.120,59.528 70.120,59.338 68.902,59.624 C66.409,60.210 63.389,60.15 60.796,60.601 C60.275,60.601 59.755,60.601 59.234,60.601 C57.829,60.911 55.928,60.856 54.449,60.991 C53.602,60.991 52.756,60.991 51.910,60.991 C50.181,61.370 47.453,61.187 45.464,61.187 C42.372,61.154 39.279,61.122 36.187,61.89 C35.425,60.921 34.238,61.186 33.355,60.991 C32.604,60.826 31.722,60.798 30.816,60.796 C30.265,61.756 29.393,62.542 28.765,63.433 C27.823,64.769 27.100,66.130 26.226,67.534 C25.895,68.66 25.360,68.643 25.54,69.195 C24.335,70.493 24.191,72.145 22.124,72.124 C20.177,70.153 19.176,66.395 18.218,63.433 C17.935,62.558 17.926,60.133 17.535,59.527 C17.535,59.494 17.535,59.462 17.535,59.429 C15.517,59.423 12.923,58.753 11.187,58.257 C9.590,57.800 8.63,57.719 6.695,57.85 ZM70.74,62.749 C70.399,62.749 70.725,62.749 71.50,62.749 C71.207,62.936 71.220,62.802 71.441,62.944 C71.737,63.135 71.879,63.573 72.124,63.823 C72.159,65.779 71.175,67.933 70.562,69.390 C68.508,74.269 66.450,77.994 61.870,80.327 C60.655,80.947 57.911,81.997 55.718,81.499 C53.569,81.11 51.608,80.624 49.859,79.741 C49.266,79.443 48.624,78.773 48.3,78.569 C47.287,78.569 46.571,78.569 45.855,78.569 C43.65,77.946 37.709,77.984 37.749,74.761 C38.356,74.107 38.454,73.664 39.800,73.687 C40.780,74.829 45.792,75.781 48.101,75.347 C48.636,73.909 51.70,72.422 52.300,71.538 C56.81,68.824 60.507,66.746 64.995,64.703 C66.325,64.97 67.726,63.691 68.999,63.140 C69.439,62.949 69.766,63.32 70.74,62.749 ZM68.23,66.851 C67.177,67.571 65.731,67.704 64.703,68.218 C61.881,69.628 58.969,70.915 56.402,72.515 C55.370,73.158 53.859,73.684 53.179,74.663 C53.342,74.663 53.505,74.663 53.667,74.663 C54.77,74.357 54.662,74.444 55.230,74.273 C56.427,73.912 57.376,73.399 58.843,73.492 C59.51,73.768 59.374,74.117 59.624,74.370 C59.655,75.70 59.586,75.332 59.429,75.933 C57.930,76.843 55.794,77.328 53.863,77.788 C53.863,77.854 53.863,77.919 53.863,77.984 C54.585,78.17 55.290,78.209 55.913,78.374 C57.94,78.687 58.752,78.254 59.527,77.984 C63.87,76.743 64.753,74.597 66.363,71.441 C66.869,70.448 67.369,69.280 67.828,68.218 C67.954,67.926 68.215,67.62 68.121,66.948 C68.121,66.916 68.121,66.883 68.121,66.851 C68.88,66.851 68.55,66.851 68.23,66.851 Z"/>
</g>
</svg>