<svg 
 xmlns="http://www.w3.org/2000/svg"
 xmlns:xlink="http://www.w3.org/1999/xlink"
 width="86px" height="73px">
<defs>
<filter id="Filter_0">
    <feFlood flood-color="rgb(164, 197, 140)" flood-opacity="1" result="floodOut" />
    <feComposite operator="atop" in="floodOut" in2="SourceGraphic" result="compOut" />
    <feBlend mode="normal" in="compOut" in2="SourceGraphic" />
</filter>

</defs>
<g filter="url(#Filter_0)">
<path fill-rule="evenodd"  fill="rgb(115, 115, 115)"
 d="M42.511,0.62 C43.899,0.32 44.548,0.670 45.441,1.136 C46.945,1.921 48.469,2.618 49.933,3.382 C53.949,5.478 58.23,7.250 62.42,9.339 C63.572,10.134 65.159,10.867 66.730,11.683 C67.199,11.926 67.793,12.402 68.292,12.562 C73.565,12.562 78.840,12.562 84.113,12.562 C84.351,12.840 84.680,12.925 84.894,13.245 C85.385,13.868 85.187,15.490 85.187,16.566 C85.187,19.430 85.187,22.295 85.187,25.160 C85.187,36.324 85.187,47.491 85.187,58.656 C85.187,61.780 85.187,64.906 85.187,68.30 C85.187,69.511 85.393,71.43 84.503,71.644 C83.694,72.281 81.151,71.937 79.816,71.937 C75.715,71.937 71.612,71.937 67.511,71.937 C51.562,71.937 35.608,71.937 19.660,71.937 C15.38,71.937 10.414,71.937 5.792,71.937 C4.181,71.937 1.620,72.284 1.7,71.253 C0.476,70.359 0.812,68.32 0.812,66.761 C0.812,62.985 0.812,59.208 0.812,55.433 C0.812,41.502 0.812,27.567 0.812,13.636 C1.174,13.264 1.514,12.924 1.886,12.562 C7.159,12.562 12.434,12.562 17.706,12.562 C18.74,12.442 18.532,12.59 18.878,11.878 C19.996,11.296 21.122,10.779 22.199,10.218 C25.511,8.493 28.888,6.941 32.160,5.238 C34.568,3.983 37.18,2.857 39.386,1.624 C40.359,1.118 41.746,0.801 42.511,0.62 ZM42.804,3.382 C42.93,4.208 39.865,4.879 38.800,5.433 C35.652,7.70 32.376,8.674 29.230,10.316 C28.485,10.704 25.110,12.81 24.835,12.562 C36.943,12.562 49.55,12.562 61.163,12.562 C61.163,12.497 61.163,12.432 61.163,12.367 C59.976,12.209 57.653,10.683 56.574,10.120 C53.332,8.429 50.52,7.22 46.808,5.335 C45.755,4.788 44.27,3.542 42.804,3.382 ZM3.937,15.687 C3.937,33.393 3.937,51.105 3.937,68.812 C29.976,68.812 56.23,68.812 82.62,68.812 C82.62,51.105 82.62,33.393 82.62,15.687 C56.23,15.687 29.976,15.687 3.937,15.687 ZM60.578,25.61 C66.612,24.989 69.594,27.482 71.613,31.409 C72.428,32.996 73.159,35.929 72.492,38.343 C72.130,39.652 71.615,41.10 70.929,42.54 C70.592,42.567 69.800,43.65 69.562,43.616 C69.562,49.573 69.562,55.531 69.562,61.488 C69.200,61.860 68.860,62.200 68.488,62.561 C67.936,62.560 67.484,62.574 67.120,62.366 C66.795,62.8 66.469,61.650 66.144,61.292 C65.167,60.348 64.191,59.404 63.214,58.460 C62.742,57.988 62.369,57.200 61.554,57.93 C59.829,58.851 58.103,60.609 56.378,62.366 C56.15,62.573 55.563,62.561 55.11,62.561 C54.854,62.375 54.841,62.509 54.620,62.366 C54.324,62.176 54.182,61.738 53.937,61.488 C53.937,55.531 53.937,49.573 53.937,43.616 C51.791,42.104 49.863,36.646 51.203,32.874 C52.63,30.452 53.487,28.385 55.402,27.15 C56.303,26.370 57.521,25.843 58.624,25.452 C59.219,25.242 60.85,25.385 60.578,25.61 ZM14.386,28.187 C24.86,28.187 33.788,28.187 43.488,28.187 C43.719,28.439 44.198,28.571 44.367,28.870 C44.817,29.669 44.443,30.654 43.878,31.19 C43.69,31.663 38.567,31.312 37.42,31.312 C31.53,31.312 25.63,31.312 19.74,31.312 C16.371,31.312 13.305,32.150 13.312,29.261 C13.485,29.117 13.462,28.942 13.605,28.773 C13.813,28.526 14.179,28.435 14.386,28.187 ZM60.773,28.187 C60.57,28.382 59.340,28.577 58.624,28.773 C56.715,29.712 55.109,31.305 54.327,33.362 C52.984,36.898 54.792,39.897 56.476,41.663 C56.639,41.891 56.801,42.119 56.964,42.347 C57.399,42.609 58.321,42.898 59.15,43.226 C59.791,43.592 61.373,44.144 62.726,43.811 C65.638,43.98 67.546,41.883 68.781,39.515 C71.445,34.404 67.609,29.603 63.702,28.382 C62.864,28.120 61.830,28.176 60.773,28.187 ZM14.386,34.437 C20.961,34.437 27.538,34.437 34.113,34.437 C35.234,34.810 35.543,36.575 34.503,37.269 C33.793,37.838 30.634,37.562 29.328,37.562 C25.487,37.562 21.645,37.562 17.804,37.562 C15.385,37.562 13.299,38.39 13.312,35.511 C13.674,35.139 14.14,34.798 14.386,34.437 ZM14.386,40.687 C20.961,40.687 27.538,40.687 34.113,40.687 C34.269,40.874 34.282,40.740 34.503,40.882 C34.799,41.73 34.942,41.510 35.187,41.761 C35.219,42.669 35.30,43.180 34.503,43.519 C33.793,44.89 30.634,43.811 29.328,43.811 C25.487,43.811 21.645,43.811 17.804,43.811 C15.385,43.811 13.299,44.290 13.312,41.761 C13.557,41.510 13.699,41.73 13.996,40.882 C14.216,40.740 14.230,40.873 14.386,40.687 ZM57.62,45.960 C57.62,49.670 57.62,53.382 57.62,57.93 C57.127,57.93 57.192,57.93 57.257,57.93 C57.932,56.53 59.121,55.229 59.992,54.359 C60.363,53.987 60.738,53.384 61.261,53.187 C61.587,53.187 61.912,53.187 62.238,53.187 C63.161,54.91 64.157,54.910 65.70,55.823 C65.484,56.238 65.840,56.879 66.437,57.93 C66.437,53.382 66.437,49.670 66.437,45.960 C64.802,46.216 62.942,47.485 60.578,46.937 C59.477,46.681 58.9,46.65 57.62,45.960 ZM18.195,55.726 C17.471,55.712 16.773,55.211 16.437,55.335 C16.194,55.619 16.83,56.125 15.753,56.312 C14.558,56.988 13.849,56.13 13.312,55.433 C13.217,52.499 14.414,50.288 15.656,48.597 C16.614,47.291 18.94,48.159 18.585,49.280 C19.260,49.66 19.694,49.4 20.441,49.183 C20.631,49.468 21.14,49.721 21.124,50.62 C21.124,51.624 21.124,53.187 21.124,54.749 C21.190,54.749 21.255,54.749 21.320,54.749 C21.320,54.684 21.320,54.619 21.320,54.554 C21.826,53.857 21.663,52.983 22.394,52.503 C22.682,52.264 23.23,52.208 23.566,52.210 C24.61,52.654 24.424,52.722 24.738,53.382 C25.226,53.57 25.714,52.731 26.202,52.405 C26.663,52.204 27.194,52.186 27.667,52.15 C27.906,51.373 28.176,50.871 29.35,50.843 C29.203,50.740 29.617,50.790 29.816,50.940 C30.324,51.100 30.675,51.548 30.695,52.210 C31.181,53.245 29.466,55.125 28.644,55.335 C28.100,55.474 27.760,55.80 27.277,55.335 C26.599,55.693 26.48,56.527 25.324,56.898 C24.785,57.174 23.988,57.61 23.468,57.386 C22.605,58.313 22.500,59.460 20.636,59.437 C20.492,59.266 20.318,59.286 20.148,59.144 C19.231,58.379 18.392,57.188 18.195,55.726 Z"/>
</g>
</svg>